<?xml version="1.0" standalone="yes"?>
<svg width="225" height="225">
<path style="fill:#ffffff; stroke:none;" d="M0 0L0 24L1 24C3.68011 12.8206 12.8205 3.6801 24 1L0 0z"/>
<path style="fill:#9c9c9c; stroke:none;" d="M24.6667 0.333328L25.3333 0.666672L24.6667 0.333328z"/>
<path style="fill:#000000; stroke:none;" d="M26 0.464508C12.2106 2.9507 1.67801 13.9986 0.173611 28C-4.43956 70.9348 0 116.793 0 160C0 175.828 -3.95538 198.391 5.78935 211.999C17.4084 228.225 38.5361 225 56 225L152 225C168.412 225 186.952 227.369 203 223.475C221.826 218.906 225 200.332 225 184L225 63C225 47.1219 228.875 25.3427 218.471 12.0039C206.517 -3.32114 185.203 0 168 0L73 0C57.9115 0 40.8546 -2.21375 26 0.464508z"/>
<path style="fill:#3b3b3b; stroke:none;" d="M196.667 0.333328L197.333 0.666672L196.667 0.333328z"/>
<path style="fill:#9c9c9c; stroke:none;" d="M198 0L198 1L201 1L198 0z"/>
<path style="fill:#fbfbfb; stroke:none;" d="M201 0L201 1C212.258 4.28909 221.206 12.3462 224 24L225 24L225 0L201 0z"/>
<path style="fill:#828282; stroke:none;" d="M21 1L22 2L21 1z"/>
<path style="fill:#9c9c9c; stroke:none;" d="M18 2L19 3L18 2M206 2L207 3L206 2z"/>
<path style="fill:#939393; stroke:none;" d="M16 3L17 4L16 3z"/>
<path style="fill:#8e8e8e; stroke:none;" d="M208 3L209 4L208 3z"/>
<path style="fill:#606060; stroke:none;" d="M13 5L14 6L13 5M211 5L212 6L211 5z"/>
<path style="fill:#a1a1a1; stroke:none;" d="M214 7L215 8L214 7z"/>
<path style="fill:#939393; stroke:none;" d="M9 8L10 9L9 8z"/>
<path style="fill:#8e8e8e; stroke:none;" d="M215 8L216 9L215 8z"/>
<path style="fill:#939393; stroke:none;" d="M8 9L9 10L8 9z"/>
<path style="fill:#8e8e8e; stroke:none;" d="M216 9L217 10L216 9z"/>
<path style="fill:#606060; stroke:none;" d="M5 13L6 14L5 13M219 13L220 14L219 13z"/>
<path style="fill:#8e8e8e; stroke:none;" d="M3 16L4 17L3 16z"/>
<path style="fill:#939393; stroke:none;" d="M221 16L222 17L221 16z"/>
<path style="fill:#9c9c9c; stroke:none;" d="M2 18L3 19L2 18M222 18L223 19L222 18z"/>
<path style="fill:#828282; stroke:none;" d="M1 21L2 22L1 21z"/>
<path style="fill:#9c9c9c; stroke:none;" d="M0.333333 24.6667L0.666667 25.3333L0.333333 24.6667M224.333 24.6667L224.667 25.3333L224.333 24.6667z"/>
<path style="fill:#404040; stroke:none;" d="M224.333 26.6667L224.667 27.3333L224.333 26.6667z"/>
<path style="fill:#a7a7a7; stroke:none;" d="M126 43L126 49L127 49L126 43z"/>
<path style="fill:#f3f3f3; stroke:none;" d="M127 45C123.767 70.0119 78.7603 79.7259 99.7608 108C102.387 111.536 105.418 114.475 109 117C106.698 108.948 99.0051 97.4148 103.318 89C110.016 75.9303 140.234 64.3712 127 45z"/>
<path style="fill:#6d6d6d; stroke:none;" d="M128 46L129 47L128 46z"/>
<path style="fill:#939393; stroke:none;" d="M129.333 49.6667L129.667 50.3333L129.333 49.6667z"/>
<path style="fill:#d0d0d0; stroke:none;" d="M129 51L129 58L130 58L129 51z"/>
<path style="fill:#b4b4b4; stroke:none;" d="M125.333 52.6667L125.667 53.3333L125.333 52.6667z"/>
<path style="fill:#606060; stroke:none;" d="M124 55L125 56L124 55z"/>
<path style="fill:#404040; stroke:none;" d="M129.333 58.6667L129.667 59.3333L129.333 58.6667z"/>
<path style="fill:#9c9c9c; stroke:none;" d="M128 61L129 62L128 61z"/>
<path style="fill:#7b7b7b; stroke:none;" d="M116 65L117 66L116 65z"/>
<path style="fill:#6d6d6d; stroke:none;" d="M126 65L127 66L126 65z"/>
<path style="fill:#595959; stroke:none;" d="M113 67L114 68L113 67z"/>
<path style="fill:#a1a1a1; stroke:none;" d="M112 68L113 69L112 68z"/>
<path style="fill:#898989; stroke:none;" d="M109 70L110 71L109 70z"/>
<path style="fill:#cacaca; stroke:none;" d="M135 75L138 72L135 75z"/>
<path style="fill:#7b7b7b; stroke:none;" d="M105 73L106 74L105 73M134 73L135 74L134 73z"/>
<path style="fill:#9c9c9c; stroke:none;" d="M104 74L105 75L104 74z"/>
<path style="fill:#898989; stroke:none;" d="M132 74L133 75L132 74z"/>
<path style="fill:#ffffff; stroke:none;" d="M120 121C134.134 110.498 120.139 103.722 121.042 92C121.628 84.4007 130.907 79.561 135 74C131.436 75.0266 128.193 76.5493 125 78.4529C122.235 80.1012 119.407 81.9113 117.109 84.1844C105.613 95.5565 120.927 108.723 120 121z"/>
<path style="fill:#939393; stroke:none;" d="M130 75L131 76L130 75z"/>
<path style="fill:#595959; stroke:none;" d="M134 75L135 76L134 75z"/>
<path style="fill:#939393; stroke:none;" d="M115 76L116 77L115 76z"/>
<path style="fill:#828282; stroke:none;" d="M128 76L129 77L128 76z"/>
<path style="fill:#656565; stroke:none;" d="M114 77L115 78L114 77M126 77L127 78L126 77z"/>
<path style="fill:#9c9c9c; stroke:none;" d="M123 79L124 80L123 79z"/>
<path style="fill:#a7a7a7; stroke:none;" d="M129 79L130 80L129 79z"/>
<path style="fill:#898989; stroke:none;" d="M98 80L99 81L98 80z"/>
<path style="fill:#939393; stroke:none;" d="M128 80L129 81L128 80z"/>
<path style="fill:#898989; stroke:none;" d="M109 81L110 82L109 81z"/>
<path style="fill:#8e8e8e; stroke:none;" d="M120 81L121 82L120 81z"/>
<path style="fill:#898989; stroke:none;" d="M127 81L128 82L127 81z"/>
<path style="fill:#636363; stroke:none;" d="M108 82L109 83L108 82z"/>
<path style="fill:#898989; stroke:none;" d="M126 82L127 83L126 82z"/>
<path style="fill:#a7a7a7; stroke:none;" d="M96 83L97 84L96 83z"/>
<path style="fill:#898989; stroke:none;" d="M125 83L126 84L125 83z"/>
<path style="fill:#939393; stroke:none;" d="M124 84L125 85L124 84z"/>
<path style="fill:#6d6d6d; stroke:none;" d="M104 86L105 87L104 86z"/>
<path style="fill:#595959; stroke:none;" d="M113 88L114 89L113 88z"/>
<path style="fill:#939393; stroke:none;" d="M102 89L103 90L102 89z"/>
<path style="fill:#606060; stroke:none;" d="M121 89L122 90L121 89z"/>
<path style="fill:#8e8e8e; stroke:none;" d="M93 90L93 96L94 96L93 90z"/>
<path style="fill:#d0d0d0; stroke:none;" d="M112 91L112 99L113 99L112 91z"/>
<path style="fill:#bcbcbc; stroke:none;" d="M120 91L120 94L121 94L120 91z"/>
<path style="fill:#828282; stroke:none;" d="M102 95L102 98L103 98L102 95z"/>
<path style="fill:#606060; stroke:none;" d="M121 95L122 96L121 95z"/>
<path style="fill:#595959; stroke:none;" d="M122 97L123 98L122 97z"/>
<path style="fill:#898989; stroke:none;" d="M94 98L95 99L94 98z"/>
<path style="fill:#7b7b7b; stroke:none;" d="M103.333 100.667L103.667 101.333L103.333 100.667z"/>
<path style="fill:#828282; stroke:none;" d="M113 101L114 102L113 101z"/>
<path style="fill:#898989; stroke:none;" d="M125 102L126 103L125 102z"/>
<path style="fill:#a1a1a1; stroke:none;" d="M114 103L115 104L114 103z"/>
<path style="fill:#8e8e8e; stroke:none;" d="M97 104L98 105L97 104z"/>
<path style="fill:#828282; stroke:none;" d="M126 104L127 105L126 104z"/>
<path style="fill:#717171; stroke:none;" d="M115 105L116 106L115 105z"/>
<path style="fill:#828282; stroke:none;" d="M99 107L100 108L99 107z"/>
<path style="fill:#939393; stroke:none;" d="M127 107L127 111L128 111L127 107z"/>
<path style="fill:#717171; stroke:none;" d="M118 109L119 110L118 109z"/>
<path style="fill:#7b7b7b; stroke:none;" d="M106 110L107 111L106 110z"/>
<path style="fill:#3b3b3b; stroke:none;" d="M120 112L120 117L121 117L120 112z"/>
<path style="fill:#a1a1a1; stroke:none;" d="M126 113L127 114L126 113M125 115L126 116L125 115z"/>
<path style="fill:#898989; stroke:none;" d="M150 117L150 118L157 118L150 117z"/>
<path style="fill:#717171; stroke:none;" d="M123 118L124 119L123 118z"/>
<path style="fill:#a1a1a1; stroke:none;" d="M147.667 118.333L148.333 118.667L147.667 118.333z"/>
<path style="fill:#ffffff; stroke:none;" d="M145 119L145 120C164.067 122.858 154.574 137.31 143 144C155.084 147.352 174.564 124.908 157.985 118.603C153.977 117.079 149.079 118.484 145 119z"/>
<path style="fill:#6d6d6d; stroke:none;" d="M87.6667 119.333L88.3333 119.667L87.6667 119.333z"/>
<path style="fill:#a1a1a1; stroke:none;" d="M89 119L89 120L93 120L89 119z"/>
<path style="fill:#8e8e8e; stroke:none;" d="M122 119L123 120L122 119z"/>
<path style="fill:#6d6d6d; stroke:none;" d="M160 119L161 120L160 119z"/>
<path style="fill:#717171; stroke:none;" d="M79.6667 120.333L80.3333 120.667L79.6667 120.333z"/>
<path style="fill:#ffffff; stroke:none;" d="M136 127L136 126C117.908 126.373 99.9767 130.429 82 126L90 121C86.2491 119.427 68.8263 120.659 73.662 127.776C76.3992 131.805 84.5715 132.387 89 132.829C103.889 134.318 122.246 133.089 136 127z"/>
<path style="fill:#828282; stroke:none;" d="M119 120L121 122L119 120z"/>
<path style="fill:#8e8e8e; stroke:none;" d="M121 120L122 121L121 120M147.667 120.333L148.333 120.667L147.667 120.333z"/>
<path style="fill:#7b7b7b; stroke:none;" d="M161 120L162 121L161 120z"/>
<path style="fill:#cacaca; stroke:none;" d="M76.6667 121.333L77.3333 121.667L76.6667 121.333z"/>
<path style="fill:#717171; stroke:none;" d="M87 121L88 122L87 121z"/>
<path style="fill:#d9d9d9; stroke:none;" d="M119 121L120 122L119 121z"/>
<path style="fill:#595959; stroke:none;" d="M151 121L152 122L151 121z"/>
<path style="fill:#9c9c9c; stroke:none;" d="M84 122L85 123L84 122z"/>
<path style="fill:#595959; stroke:none;" d="M118.667 122.333L119.333 122.667L118.667 122.333z"/>
<path style="fill:#a7a7a7; stroke:none;" d="M155 123L156 124L155 123z"/>
<path style="fill:#606060; stroke:none;" d="M138 124L140 126L140 124L138 124z"/>
<path style="fill:#828282; stroke:none;" d="M133 125L133 126L136 126L133 125z"/>
<path style="fill:#d0d0d0; stroke:none;" d="M136 127L139 126L136 127z"/>
<path style="fill:#9c9c9c; stroke:none;" d="M83 126L83 127L86 127L83 126z"/>
<path style="fill:#a7a7a7; stroke:none;" d="M125 126L125 127L130 127L125 126z"/>
<path style="fill:#898989; stroke:none;" d="M157 126L157 130L158 130L157 126z"/>
<path style="fill:#7b7b7b; stroke:none;" d="M72 127L73 128L72 127z"/>
<path style="fill:#b4b4b4; stroke:none;" d="M89 127L89 128L94 128L89 127z"/>
<path style="fill:#606060; stroke:none;" d="M94 127L94 128L111 128L94 127z"/>
<path style="fill:#aeaeae; stroke:none;" d="M111 127L111 128L118 128L111 127z"/>
<path style="fill:#828282; stroke:none;" d="M164 127L164 131L165 131L164 127z"/>
<path style="fill:#898989; stroke:none;" d="M73 128L74 129L73 128z"/>
<path style="fill:#939393; stroke:none;" d="M132 128L133 129L132 128z"/>
<path style="fill:#a1a1a1; stroke:none;" d="M129 129L130 130L129 129z"/>
<path style="fill:#7b7b7b; stroke:none;" d="M125.667 130.333L126.333 130.667L125.667 130.333z"/>
<path style="fill:#b4b4b4; stroke:none;" d="M80.6667 131.333L81.3333 131.667L80.6667 131.333z"/>
<path style="fill:#9c9c9c; stroke:none;" d="M120 131L120 132L123 132L120 131z"/>
<path style="fill:#717171; stroke:none;" d="M156 131L157 132L156 131z"/>
<path style="fill:#6d6d6d; stroke:none;" d="M84 132L84 133L87 133L84 132z"/>
<path style="fill:#d0d0d0; stroke:none;" d="M108 132L108 133L114 133L108 132z"/>
<path style="fill:#7b7b7b; stroke:none;" d="M114 132L114 133L117 133L114 132z"/>
<path style="fill:#404040; stroke:none;" d="M92 133L92 134L107 134L92 133z"/>
<path style="fill:#6d6d6d; stroke:none;" d="M154 134L155 135L154 134z"/>
<path style="fill:#8e8e8e; stroke:none;" d="M162 134L163 135L162 134z"/>
<path style="fill:#a1a1a1; stroke:none;" d="M87 136L87 138L89 136L87 136z"/>
<path style="fill:#ffffff; stroke:none;" d="M136 143L136 142C122.093 133.55 99.2461 150.879 87 137C75.6137 141.194 91.5517 145.511 96 146.13C109.81 148.055 122.361 143.282 136 143z"/>
<path style="fill:#a1a1a1; stroke:none;" d="M129.667 138.333L130.333 138.667L129.667 138.333z"/>
<path style="fill:#828282; stroke:none;" d="M158 138L159 139L158 138z"/>
<path style="fill:#717171; stroke:none;" d="M123.667 139.333L124.333 139.667L123.667 139.333z"/>
<path style="fill:#828282; stroke:none;" d="M90 140L90 141L93 141L90 140z"/>
<path style="fill:#a1a1a1; stroke:none;" d="M116 140L116 141L120 141L116 140M133 140L134 141L133 140z"/>
<path style="fill:#6d6d6d; stroke:none;" d="M148 140L149 141L148 140z"/>
<path style="fill:#717171; stroke:none;" d="M155 140L156 141L155 140z"/>
<path style="fill:#a7a7a7; stroke:none;" d="M96 141L96 142L112 142L96 141z"/>
<path style="fill:#939393; stroke:none;" d="M147 141L148 142L147 141z"/>
<path style="fill:#7b7b7b; stroke:none;" d="M153 141L154 142L153 141z"/>
<path style="fill:#656565; stroke:none;" d="M151 142L152 143L151 142z"/>
<path style="fill:#606060; stroke:none;" d="M84 143L85 144L84 143z"/>
<path style="fill:#cacaca; stroke:none;" d="M129.667 143.333L130.333 143.667L129.667 143.333z"/>
<path style="fill:#656565; stroke:none;" d="M131.667 143.333L132.333 143.667L131.667 143.333z"/>
<path style="fill:#939393; stroke:none;" d="M148 143L149 144L148 143z"/>
<path style="fill:#bcbcbc; stroke:none;" d="M124 144L124 145L127 145L124 144z"/>
<path style="fill:#b4b4b4; stroke:none;" d="M90.6667 145.333L91.3333 145.667L90.6667 145.333z"/>
<path style="fill:#a1a1a1; stroke:none;" d="M118 145L118 146L121 146L118 145z"/>
<path style="fill:#939393; stroke:none;" d="M94 146L94 147L99 147L94 146M110 146L110 147L113 147L110 146z"/>
<path style="fill:#505050; stroke:none;" d="M113.667 146.333L114.333 146.667L113.667 146.333z"/>
<path style="fill:#b4b4b4; stroke:none;" d="M89.6667 151.333L90.3333 151.667L89.6667 151.333z"/>
<path style="fill:#ffffff; stroke:none;" d="M133 158L133 157C121.019 149.305 102.43 162.82 92 151C80.4432 155.691 92.6918 160.576 99 161.561C109.953 163.272 122.789 162.393 133 158z"/>
<path style="fill:#6d6d6d; stroke:none;" d="M92.3333 151.667L92.6667 152.333L92.3333 151.667z"/>
<path style="fill:#8e8e8e; stroke:none;" d="M87 152L88 153L87 152M86 153L87 154L86 153z"/>
<path style="fill:#595959; stroke:none;" d="M123 153L123 154L126 154L123 153z"/>
<path style="fill:#b4b4b4; stroke:none;" d="M95.6667 154.333L96.3333 154.667L95.6667 154.333z"/>
<path style="fill:#6d6d6d; stroke:none;" d="M97 154L97 155L100 155L97 154z"/>
<path style="fill:#656565; stroke:none;" d="M117 154L117 155L120 155L117 154z"/>
<path style="fill:#939393; stroke:none;" d="M103 155L103 156L114 156L103 155z"/>
<path style="fill:#7b7b7b; stroke:none;" d="M130 155L131 156L130 155z"/>
<path style="fill:#939393; stroke:none;" d="M133 157L134 158L133 157z"/>
<path style="fill:#828282; stroke:none;" d="M129 159L130 160L129 159z"/>
<path style="fill:#9c9c9c; stroke:none;" d="M92.6667 160.333L93.3333 160.667L92.6667 160.333z"/>
<path style="fill:#636363; stroke:none;" d="M125.667 160.333L126.333 160.667L125.667 160.333z"/>
<path style="fill:#6d6d6d; stroke:none;" d="M72 161L72 162L75 162L72 161z"/>
<path style="fill:#b4b4b4; stroke:none;" d="M75 163L79 162L75 163z"/>
<path style="fill:#6d6d6d; stroke:none;" d="M96 161L96 162L99 162L96 161z"/>
<path style="fill:#7b7b7b; stroke:none;" d="M120 161L120 162L123 162L120 161z"/>
<path style="fill:#a1a1a1; stroke:none;" d="M67.6667 162.333L68.3333 162.667L67.6667 162.333z"/>
<path style="fill:#ffffff; stroke:none;" d="M157 163C147.974 168.359 138.279 169.137 128 170.169C108.053 172.171 88.464 173.183 69 167L69 165L75 163C69.9819 160.953 55.8049 165.036 64.1489 171.262C69.6217 175.346 79.5236 175 86 175C102.779 175.001 119.359 175.471 136 173.13C143.248 172.111 154.61 171.072 157 163z"/>
<path style="fill:#404040; stroke:none;" d="M103 162L103 163L107 163L103 162z"/>
<path style="fill:#656565; stroke:none;" d="M107 162L107 163L117 163L107 162M156 162L157 163L156 162z"/>
<path style="fill:#717171; stroke:none;" d="M72 163L73 164L72 163z"/>
<path style="fill:#9c9c9c; stroke:none;" d="M62 164L63 165L62 164z"/>
<path style="fill:#7b7b7b; stroke:none;" d="M153 165L154 166L153 165z"/>
<path style="fill:#6d6d6d; stroke:none;" d="M60.3333 166.667L60.6667 167.333L60.3333 166.667z"/>
<path style="fill:#c3c3c3; stroke:none;" d="M150.667 166.333L151.333 166.667L150.667 166.333z"/>
<path style="fill:#898989; stroke:none;" d="M156 166L157 167L156 166z"/>
<path style="fill:#9c9c9c; stroke:none;" d="M70 167L71 168L70 167z"/>
<path style="fill:#bcbcbc; stroke:none;" d="M146.667 167.333L147.333 167.667L146.667 167.333z"/>
<path style="fill:#717171; stroke:none;" d="M155 167L156 168L155 167M73 168L73 169L76 169L73 168z"/>
<path style="fill:#7b7b7b; stroke:none;" d="M140.667 168.333L141.333 168.667L140.667 168.333z"/>
<path style="fill:#a1a1a1; stroke:none;" d="M153 168L154 169L153 168z"/>
<path style="fill:#898989; stroke:none;" d="M61 169L62 170L61 169M78 169L78 170L81 170L78 169z"/>
<path style="fill:#717171; stroke:none;" d="M133 169L133 170L136 170L133 169z"/>
<path style="fill:#828282; stroke:none;" d="M151 169L152 170L151 169M62 170L63 171L62 170z"/>
<path style="fill:#b4b4b4; stroke:none;" d="M84 170L84 171L87 171L84 170z"/>
<path style="fill:#636363; stroke:none;" d="M87.6667 170.333L88.3333 170.667L87.6667 170.333z"/>
<path style="fill:#606060; stroke:none;" d="M124.667 170.333L125.333 170.667L124.667 170.333z"/>
<path style="fill:#9c9c9c; stroke:none;" d="M148 170L149 171L148 170z"/>
<path style="fill:#828282; stroke:none;" d="M162.333 170.667L162.667 171.333L162.333 170.667z"/>
<path style="fill:#c3c3c3; stroke:none;" d="M93 171L93 172L100 172L93 171z"/>
<path style="fill:#8e8e8e; stroke:none;" d="M100 171L100 172L113 172L100 171z"/>
<path style="fill:#c3c3c3; stroke:none;" d="M113 171L113 172L119 172L113 171z"/>
<path style="fill:#828282; stroke:none;" d="M144.667 171.333L145.333 171.667L144.667 171.333z"/>
<path style="fill:#7b7b7b; stroke:none;" d="M160 171L161 172L160 171z"/>
<path style="fill:#ffffff; stroke:none;" d="M161 171C139.428 183.543 112.971 180 89 180L89 181C107.424 181.153 125.6 183.313 144 180.41C149.275 179.577 161.154 178.019 161 171z"/>
<path style="fill:#717171; stroke:none;" d="M140 172L140 173L143 173L140 172z"/>
<path style="fill:#9c9c9c; stroke:none;" d="M69.6667 173.333L70.3333 173.667L69.6667 173.333z"/>
<path style="fill:#bcbcbc; stroke:none;" d="M133 173L133 174L136 174L133 173z"/>
<path style="fill:#3b3b3b; stroke:none;" d="M136.667 173.333L137.333 173.667L136.667 173.333z"/>
<path style="fill:#7b7b7b; stroke:none;" d="M74.6667 174.333L75.3333 174.667L74.6667 174.333z"/>
<path style="fill:#939393; stroke:none;" d="M125 174L125 175L130 175L125 174z"/>
<path style="fill:#606060; stroke:none;" d="M154 174L155 175L154 174z"/>
<path style="fill:#717171; stroke:none;" d="M82 175L82 176L89 176L82 175z"/>
<path style="fill:#d0d0d0; stroke:none;" d="M89 175L89 176L111 176L89 175z"/>
<path style="fill:#a1a1a1; stroke:none;" d="M111 175L111 176L119 176L111 175z"/>
<path style="fill:#505050; stroke:none;" d="M119 175L119 176L122 176L119 175z"/>
<path style="fill:#a7a7a7; stroke:none;" d="M148.667 176.333L149.333 176.667L148.667 176.333z"/>
<path style="fill:#6d6d6d; stroke:none;" d="M157 176L158 177L157 176z"/>
<path style="fill:#cacaca; stroke:none;" d="M145.667 177.333L146.333 177.667L145.667 177.333z"/>
<path style="fill:#898989; stroke:none;" d="M155 177L156 178L155 177z"/>
<path style="fill:#363636; stroke:none;" d="M136 178L136 179L139 179L136 178z"/>
<path style="fill:#a1a1a1; stroke:none;" d="M139.667 178.333L140.333 178.667L139.667 178.333z"/>
<path style="fill:#636363; stroke:none;" d="M153 178L154 179L153 178z"/>
<path style="fill:#a7a7a7; stroke:none;" d="M82 179L82 180L91 180L82 179z"/>
<path style="fill:#4b4b4b; stroke:none;" d="M91 179L91 180L130 180C119.726 175.689 102.172 179 91 179z"/>
<path style="fill:#d9d9d9; stroke:none;" d="M130 179L130 180L136 180L130 179z"/>
<path style="fill:#6d6d6d; stroke:none;" d="M149.667 179.333L150.333 179.667L149.667 179.333z"/>
<path style="fill:#545454; stroke:none;" d="M85.6667 180.333L86.3333 180.667L85.6667 180.333z"/>
<path style="fill:#bcbcbc; stroke:none;" d="M143 180L143 181L146 181L143 180M93 181L93 182L97 182L93 181z"/>
<path style="fill:#c3c3c3; stroke:none;" d="M135 181L135 182L138 182L135 181z"/>
<path style="fill:#656565; stroke:none;" d="M138 181L138 182L141 182L138 181z"/>
<path style="fill:#545454; stroke:none;" d="M101.667 182.333L102.333 182.667L101.667 182.333z"/>
<path style="fill:#a7a7a7; stroke:none;" d="M103 182L103 183L111 183L103 182z"/>
<path style="fill:#cacaca; stroke:none;" d="M111 182L111 183L122 183L111 182z"/>
<path style="fill:#a1a1a1; stroke:none;" d="M122 182L122 183L130 183L122 182z"/>
<path style="fill:#3b3b3b; stroke:none;" d="M130.667 182.333L131.333 182.667L130.667 182.333M0 196L0 199L1 199L0 196z"/>
<path style="fill:#6d6d6d; stroke:none;" d="M224.333 197.667L224.667 198.333L224.333 197.667z"/>
<path style="fill:#bcbcbc; stroke:none;" d="M0.333333 199.667L0.666667 200.333L0.333333 199.667M224.333 199.667L224.667 200.333L224.333 199.667z"/>
<path style="fill:#ffffff; stroke:none;" d="M0 201L0 225L24 225L24 224C10.5311 220.771 7.1554 210.975 0 201M224 201C220.621 212.564 212.564 220.621 201 224L201 225L225 225L224 201z"/>
<path style="fill:#9c9c9c; stroke:none;" d="M2 206L3 207L2 206M222 206L223 207L222 206z"/>
<path style="fill:#939393; stroke:none;" d="M3 208L4 209L3 208M221 208L222 209L221 208z"/>
<path style="fill:#606060; stroke:none;" d="M5 211L6 212L5 211M219 211L220 212L219 211z"/>
<path style="fill:#8e8e8e; stroke:none;" d="M8 215L9 216L8 215z"/>
<path style="fill:#939393; stroke:none;" d="M216 215L217 216L216 215z"/>
<path style="fill:#8e8e8e; stroke:none;" d="M9 216L10 217L9 216z"/>
<path style="fill:#939393; stroke:none;" d="M215 216L216 217L215 216z"/>
<path style="fill:#606060; stroke:none;" d="M13 219L14 220L13 219M211 219L212 220L211 219z"/>
<path style="fill:#939393; stroke:none;" d="M16 221L17 222L16 221M208 221L209 222L208 221z"/>
<path style="fill:#9c9c9c; stroke:none;" d="M18 222L19 223L18 222M206 222L207 223L206 222z"/>
<path style="fill:#828282; stroke:none;" d="M21 223L22 224L21 223z"/>
<path style="fill:#9c9c9c; stroke:none;" d="M24.6667 224.333L25.3333 224.667L24.6667 224.333z"/>
<path style="fill:#404040; stroke:none;" d="M26.6667 224.333L27.3333 224.667L26.6667 224.333z"/>
<path style="fill:#3b3b3b; stroke:none;" d="M196.667 224.333L197.333 224.667L196.667 224.333z"/>
<path style="fill:#9c9c9c; stroke:none;" d="M198 224L198 225L201 225L198 224z"/>
</svg>
